<?xml version="1.0" encoding="UTF-8" standalone="no"?>
<svg
    xmlns="http://www.w3.org/2000/svg"
    width="139.37839"
    height="139.37839"
    viewBox="0 0 448 512"
    version="1.1">
  <path
      fill="#0077B5"
      d="M100.28 448H7.4V148.9h92.88zm-46.44-340.6C24.4 107.4 0 82 0 50.2 0 18.4 24.4-6 54.8-6s54.8 24.4 54.8 56.2-24.4 56.2-54.8 56.2zM447.9 448h-92.4V302.4c0-34.7-12.4-58.4-43.4-58.4-23.7 0-37.8 16-44 31.4-2.3 5.5-2.9 13.2-2.9 20.9V448H173.8s1.2-260.2 0-287.1h92.4v40.7c12.3-19 34.4-46.1 83.5-46.1 60.9 0 106.4 39.8 106.4 125.3V448z"/>
</svg>
